<svg width="42" height="42" viewBox="0 0 42 42" fill="none" xmlns="http://www.w3.org/2000/svg">
<g id="iconspace_Marketing_25px">
<path id="path" fill-rule="evenodd" clip-rule="evenodd" d="M18.1165 9.0675L15.1201 9.39069V24.2221L18.2003 24.5585L30.3141 28.4411C30.5618 28.5201 30.8202 28.5603 31.0801 28.5603C32.4719 28.5603 33.6001 27.432 33.6001 26.0403V7.56066C33.6001 7.29971 33.5596 7.04035 33.48 6.79184C33.0554 5.46644 31.6367 4.73619 30.3113 5.1608L28.5601 5.7218V14.28C28.5601 14.7439 28.184 15.12 27.7201 15.12C27.2562 15.12 26.8801 14.7439 26.8801 14.28V6.26L18.1165 9.0675ZM13.4401 24.0387V9.57189L8.60955 10.0929C5.6235 10.415 3.36011 12.9356 3.36011 15.939V17.6651C3.36011 20.6655 5.61915 23.1846 8.60181 23.5103L13.4401 24.0387Z" fill="#00BCD4"/>
<path id="path_2" fill-rule="evenodd" clip-rule="evenodd" d="M37.8 16.8C37.8 15.0694 36.7976 13.5652 35.28 12.6611V20.9389C36.7976 20.0348 37.8 18.5306 37.8 16.8ZM8.4193 25.1804C8.13427 25.1493 7.85438 25.1026 7.58044 25.0412L10.9539 33.6794C11.3315 34.6462 12.2632 35.2827 13.3012 35.2827H14.2413C14.391 35.2827 14.5405 35.2693 14.6878 35.2428C16.0576 34.9962 16.968 33.6858 16.7214 32.3161L15.5773 25.9621L8.4193 25.1804Z" fill="#FED14C"/>
</g>
</svg>
