<svg width="16" height="16" viewBox="0 0 16 16" fill="none" xmlns="http://www.w3.org/2000/svg">
<path d="M14.6667 11.16V3.1133C14.6667 2.3133 14.0134 1.71996 13.22 1.78663H13.18C11.78 1.90663 9.65337 2.61996 8.46671 3.36663L8.35337 3.43996C8.16004 3.55996 7.84004 3.55996 7.64671 3.43996L7.48004 3.33996C6.29337 2.59996 4.17337 1.8933 2.77337 1.77996C1.98004 1.7133 1.33337 2.3133 1.33337 3.10663V11.16C1.33337 11.8 1.85337 12.4 2.49337 12.48L2.68671 12.5066C4.13337 12.7 6.36671 13.4333 7.64671 14.1333L7.67337 14.1466C7.85337 14.2466 8.14004 14.2466 8.31337 14.1466C9.59337 13.44 11.8334 12.7 13.2867 12.5066L13.5067 12.48C14.1467 12.4 14.6667 11.8 14.6667 11.16Z" stroke="#7E848C" stroke-width="1.7" stroke-linecap="round" stroke-linejoin="round"/>
<path d="M8 3.66003V13.66" stroke="#7E848C" stroke-width="1.7" stroke-linecap="round" stroke-linejoin="round"/>
<path d="M5.16663 5.66003H3.66663" stroke="#7E848C" stroke-width="1.7" stroke-linecap="round" stroke-linejoin="round"/>
<path d="M5.66663 7.66003H3.66663" stroke="#7E848C" stroke-width="1.5" stroke-linecap="round" stroke-linejoin="round"/>
</svg>
