<svg width="42" height="42" viewBox="0 0 42 42" fill="none" xmlns="http://www.w3.org/2000/svg">
<g id="iconspace_Headset A_25px">
<path id="Path" fill-rule="evenodd" clip-rule="evenodd" d="M38.6401 26.3279C37.9585 25.4855 37.0996 24.7926 36.1201 24.3059V21C36.1201 12.4175 29.5826 5.93089 21.0001 5.93089C12.4176 5.93089 5.88011 12.4175 5.88011 21V24.3059C4.90064 24.7926 4.04171 25.4855 3.36011 26.3279V21C3.36011 11.0258 11.0258 3.41089 21.0001 3.41089C30.9744 3.41089 38.6401 11.0258 38.6401 21V26.3279ZM8.4744 25.2494C8.42563 25.5055 8.40011 25.7698 8.40011 26.04V36.12C8.40011 36.3903 8.42563 36.6546 8.4744 36.9106C5.58874 36.5354 3.36011 34.068 3.36011 31.08C3.36011 28.0921 5.58874 25.6247 8.4744 25.2494ZM33.6001 36.12C33.6001 36.3903 33.5746 36.6546 33.5258 36.9106C36.4115 36.5354 38.6401 34.068 38.6401 31.08C38.6401 28.0921 36.4115 25.6247 33.5258 25.2494C33.5746 25.5055 33.6001 25.7698 33.6001 26.04V36.12Z" fill="#00BCD4"/>
<path id="Path_2" fill-rule="evenodd" clip-rule="evenodd" d="M14.28 23.52H12.6C11.2082 23.52 10.08 24.6483 10.08 26.04V36.12C10.08 37.5118 11.2082 38.64 12.6 38.64H14.28C15.6717 38.64 16.8 37.5118 16.8 36.12V26.04C16.8 24.6483 15.6717 23.52 14.28 23.52ZM29.4001 23.52H27.7201C26.3283 23.52 25.2001 24.6483 25.2001 26.04V36.12C25.2001 37.5118 26.3283 38.64 27.7201 38.64H29.4001C30.7918 38.64 31.9201 37.5118 31.9201 36.12V26.04C31.9201 24.6483 30.7918 23.52 29.4001 23.52Z" fill="#FED14C"/>
</g>
</svg>
