<svg width="42" height="42" viewBox="0 0 42 42" fill="none" xmlns="http://www.w3.org/2000/svg">
<g id="iconspace_Create New 1_25px">
<path id="Path" d="M36.1787 16.1537C36.1787 15.474 36.7297 14.923 37.4094 14.923C38.0891 14.923 38.6401 15.474 38.6401 16.1537V32.4865C38.6401 35.885 35.8851 38.64 32.4866 38.64H9.5136C6.11512 38.64 3.36011 35.885 3.36011 32.4865V9.51347C3.36011 6.115 6.11512 3.35999 9.5136 3.35999H24.293C24.9727 3.35999 25.5237 3.91099 25.5237 4.59068C25.5237 5.27038 24.9727 5.82138 24.293 5.82138H9.5136C7.47451 5.82138 5.8215 7.47439 5.8215 9.51347V32.4865C5.8215 34.5256 7.47451 36.1786 9.5136 36.1786H32.4866C34.5257 36.1786 36.1787 34.5256 36.1787 32.4865V16.1537Z" fill="#FED14C"/>
<path id="Path_2" fill-rule="evenodd" clip-rule="evenodd" d="M17.6555 18.1962L23.8228 24.3266L38.052 10.0974C38.8367 9.31272 38.8367 8.04049 38.052 7.25581L34.7447 3.9485C33.96 3.16381 32.6878 3.16381 31.9031 3.9485L17.6555 18.1962ZM22.2178 25.7238C22.3739 25.6946 22.5183 25.6218 22.6345 25.5141L16.4689 19.3855C16.3708 19.4981 16.3043 19.6352 16.2767 19.7827L15.1348 25.8855C15.0263 26.4659 15.5346 26.9743 16.115 26.8657L22.2178 25.7238Z" fill="#00BCD4"/>
</g>
</svg>
