<svg width="42" height="42" viewBox="0 0 42 42" fill="none" xmlns="http://www.w3.org/2000/svg">
<g id="iconspace_Pen_25px">
<path id="Path" fill-rule="evenodd" clip-rule="evenodd" d="M24.7169 36.5683L31.92 22.1583C31.3922 22.093 30.8814 21.8577 30.4762 21.4524L22.2299 13.204C21.8247 12.7988 21.5895 12.2879 21.5242 11.76L7.11802 18.9649C6.86259 19.0927 6.69142 19.3435 6.66556 19.628L5.03998 37.514L14.0426 28.721C12.8718 27.1085 13.0132 24.839 14.4667 23.3851C16.0769 21.7745 18.6875 21.7745 20.2977 23.3851C21.9079 24.9957 21.9079 27.607 20.2977 29.2176C18.9312 30.5845 16.844 30.7913 15.2594 29.8381L6.24764 38.64L24.0539 37.0208C24.3384 36.995 24.5891 36.8238 24.7169 36.5683ZM19.1315 24.5516C18.1654 23.5852 16.599 23.5852 15.6329 24.5516C14.6668 25.518 14.6668 27.0847 15.6329 28.0511C16.599 29.0174 18.1654 29.0174 19.1315 28.0511C20.0976 27.0847 20.0976 25.518 19.1315 24.5516Z" fill="#00BCD4"/>
<path id="Path_2" d="M32.166 19.9139L23.766 11.5139C23.438 11.1859 23.438 10.654 23.766 10.326L28.806 5.28601C29.1341 4.95797 29.6659 4.95797 29.994 5.28601L38.394 13.686C38.722 14.014 38.722 14.5459 38.394 14.8739L33.354 19.9139C33.0259 20.242 32.4941 20.242 32.166 19.9139Z" fill="#FED14C"/>
</g>
</svg>
